<svg xmlns="http://www.w3.org/2000/svg" viewBox="0 0 2001.84 1299.79"><defs><style>.cls-1{fill:#3f3d56;}.cls-2{fill:#ff6584;}.cls-3{fill:#f2f2f2;}</style></defs><g id="Layer_2" data-name="Layer 2"><g id="Layer_1-2" data-name="Layer 1"><path class="cls-1" d="M397.7,459.26c-65.72,0-125,79.28-125,145,0,118,59.28,181,125,181s123-102,123-181C520.7,511.26,463.43,459.26,397.7,459.26Zm-2,194c-24.85,0-33-20.15-33-45s8.15-45,33-45,35,20.15,35,45S420.56,653.26,395.7,653.26Z"/><path class="cls-1" d="M711.5,725.44c-65.72,0-112.7,118.68-112.7,184.4,0,118,59.28,181,125,181s119.57-54.09,113.64-182.7C833.15,815.24,777.22,725.44,711.5,725.44Zm10.3,233.4c-24.85,0-33-20.15-33-45s9.15-58.09,34-58.09,34,33.24,34,58.09S746.65,958.84,721.8,958.84Z"/><path class="cls-1" d="M564.73,330.77c-34,11-45.7,61-45.7,75,1,68,13.7,230.18,22.85,244.09s19.07,49.8,47.61,41.86,36.47-35.23,36-52.59-16.21-205,31.16-212.18c32.76-3.35,29,148.53,29.16,171.67S710,639.81,728,634.81s41.91-15.87,48.13-55.42,2.81-181.13,0-223.84-34.5-79.43-75.06-78c-35.6,3-86.45,28.83-92.29,99.27,0,5-6.25,5.42-6.66,1.25S605.26,317.68,564.73,330.77Z"/><path class="cls-1" d="M820.49,300.9c0,.93,0,1.86,0,2.79a98.61,98.61,0,0,0,.73,12.09C820.8,310.62,820.58,305.64,820.49,300.9Z"/><path class="cls-1" d="M997.24,461c-12.56-6-63.24-16.28-60.92-26a8.53,8.53,0,0,1,2.55-4.12c52.7-8.39,96.37-56.21,96.37-110.39,0-59.72-53-104.55-112.75-104.55-57.37,0-107.48,44.68-111.31,101.15-.11,1.38-.17,2.77-.21,4.17h0c.09,4.74.31,9.72.69,14.88,6,83.6,50.23,216,159.51,216,44.37,0,44.41-46.55,44.41-46.55C1019.51,478.35,1009.8,467,997.24,461ZM929.91,287.56a29.34,29.34,0,1,1-29.33,29.34A29.35,29.35,0,0,1,929.91,287.56Z"/><path class="cls-1" d="M1664.18,907.85c-14.29-6.81-72-18.53-69.34-29.63a9.69,9.69,0,0,1,2.9-4.69c60-9.55,109.7-64,109.7-125.66,0-68-60.38-119-128.34-119-65.31,0-122.35,50.86-126.71,115.14-.12,1.57-.19,3.16-.24,4.75h0c.1,5.4.36,11.06.79,16.94,6.83,95.16,57.17,245.81,181.57,245.81,50.5,0,50.55-53,50.55-53C1689.53,927.59,1678.48,914.67,1664.18,907.85Zm-76.64-197.44a33.4,33.4,0,1,1-33.39,33.4A33.41,33.41,0,0,1,1587.54,710.41Z"/><path class="cls-1" d="M820.7,296.72c-.11,1.38-.17,2.77-.21,4.17,0-1.47,0-2.92,0-4.34Z"/><path class="cls-1" d="M306,1156.72c-10.85-47.06-41.78-156.52-48.07-183s-19.23-49.46-60.41-43.93-39.09,26.48-38.39,46.74c2.2,18.6-8.53,14.8-10.28,11.31s-16.6-12.1-32.35-12.1c-34.2,0-121.89,71.15-116.2,193.92,4.17,51.7,45.69,137.36,130.19,129.61s101.28-82.49,103.37-100.64,10,52.45,48,40.89S306.38,1159.57,306,1156.72ZM125.6,1174.47a44.25,44.25,0,1,1,44.25-44.25A44.25,44.25,0,0,1,125.6,1174.47Z"/><path class="cls-1" d="M331.33,829.59c-58.17,13.63-35.47,77.15-35.47,77.15,10.65,69.15,35.47,207.68,35.47,207.68,14,46.93,23.78,96.69,61.69,91.32s44.24-34.34,41.69-70.69-8.11-81.51-9.48-113.62,41.78-48.94,49.21-14.1,18.66,169.53,74.95,162.23,48.56-106.31,48.38-112.27c-3.91-113.8-32-274.47-116.26-264.35-68,10.12-92.6,67.28-92.6,67.28C370.65,841.5,344.6,825,331.33,829.59Z"/><path class="cls-1" d="M869.56,636.51c-5.24-38.36,14.83-70.1,53.55-70.1s58.78,17.14,58.78,55.85-1.48,74,19.52,71.29,42.35-8.31,58.38-8.31,27.9,19.63,31.82,53-2.06,51.33-13.54,59.55-38.1,22.86-47.91,27.6S1020,843,1020,843.05c.77,20.85,10.75,196.44,12.3,219.32,1.56,30.29-22.88,63.84-42.1,67.09s-65.2-16.1-71.8-71-10.89-189.5-10.89-195.66-4.51-3.83-13.29-5-49.56,8.62-63.75-57c-6.79-31.72-1.16-38.25,7.12-43.61s32.57-23.44,40.15-28.58,5.85-8.32,4.49-15S874.1,669.77,869.56,636.51Z"/><path class="cls-1" d="M1177.94,446.87c-47.27-2.57-73.16,42.82-71.29,105.21s7.31,302.19,7.23,362.41,19.77,96.29,54.9,95.82,57.43-44.59,60.36-95.82-4.08-142.87,46.43-143.64,41.12,31.81,41.4,34.34c2.46,48.76.12,54.85,4.61,96.91s26.23,48.28,35.16,47.9c38.06.28,82.63-46.33,39-277.3-12.85-61.84-88-49.24-88-49.24-55.75,8.33-60.7,39.94-70,46.31C1213.54,686.4,1272.63,452,1177.94,446.87Z"/><path class="cls-1" d="M1820.54,675.73c-44.66-11.09-58.69,28.87-64.63,44.8-12.77,44.69-70.71,300.5,14.39,316.22,48.82,8.75,71.48-100.34,84.93-144.55,8.29-27.25,29.67-34.11,43.25-30.87,6.84,1.63,13.71,14.77,15,19.53,4.54,16.16,19.51,30.08,48.92,26.46s36.91-40.55,39.24-77.07-22.07-90.24-72.41-99-57.88,34-62.5,21.83S1872.93,696.23,1820.54,675.73Z"/><path class="cls-2" d="M1702.24,42.48c102,0,226.37,87.05,216,215.54s-72.8,221.43-200.58,221.76-200.86-62.85-275.26-35.17c-27.78,12.37-55.59,43.46-75.36,40.35s-14.15-21.47,0-40.41C1400.81,399.33,1426.13,42.48,1702.24,42.48Z"/><path class="cls-1" d="M1340.83,465a29.58,29.58,0,0,1-4.59-.36c-12.92-2-18.29-9-20.51-14.43-4.52-11.09,0-25.78,13.31-43.66,6.06-8.11,13.22-33.31,21.5-62.49,16.28-57.33,40.88-144,88.65-214.86C1465.74,89.8,1497,59,1532,37.73,1573.11,12.69,1620.62,0,1673.17,0c30.19,0,62.24,7.17,92.68,20.72,31.07,13.84,59.19,33.83,81.31,57.8a205.06,205.06,0,0,1,41.65,66.6,188.61,188.61,0,0,1,11.47,82.46c-2.7,33.56-8.87,64.37-18.32,91.58-9.93,28.58-23.56,53.35-40.49,73.61A179.22,179.22,0,0,1,1777,441.89c-26,11.66-55.68,17.61-88.32,17.7h-1c-60.41,0-108.13-13.59-150.26-25.59-46.61-13.28-83.45-23.77-119.78-10.4-9.89,4.46-20.26,11.84-30.29,19C1371.12,454.08,1355.8,465,1340.83,465Zm-4.5-23.38a9.81,9.81,0,0,0,3.37,1c7.45,1.15,21.89-9.12,34.63-18.19,11-7.86,22.44-16,34.47-21.34l.65-.26c43.28-16.1,85.31-4.13,134,9.73,40.73,11.6,86.87,24.74,144.18,24.74h1c57.61-.15,103.3-19.94,135.8-58.82,15.2-18.19,27.49-40.61,36.54-66.64,8.83-25.42,14.6-54.38,17.16-86,5-61.49-23-105.8-47.29-132.15-20.08-21.77-45.67-39.94-74-52.56-27.61-12.29-56.52-18.79-83.61-18.79-48.41,0-92,11.6-129.63,34.48-32.24,19.62-61.13,48.17-85.86,84.88-45.79,67.94-68.85,149.17-85.69,208.49-9.62,33.86-16.57,58.33-25.09,69.74C1337.26,432.8,1336,439.82,1336.33,441.61Z"/><path class="cls-3" d="M1795.89,216.22a99.78,99.78,0,0,1-2.54,18.35s0,0,0,0c-14.78,64.49-88.27,137.27-112.45,143.8l-.11,0h0a16,16,0,0,1-2.7.05l-.61-.05a36.75,36.75,0,0,1-5.28-.87h-.05c-26.41-10.41-95.65-80.55-109.93-142.94,0,0,0,0,0,0a99.78,99.78,0,0,1-2.54-18.35,67.07,67.07,0,0,1,118.14-43.47,67.06,67.06,0,0,1,118.12,43.47Z"/></g></g></svg>